<svg version="1.1" xmlns="http://www.w3.org/2000/svg" viewBox="0 0 3006.868524376203 665.5090006384993" width="3006.868524376203" height="665.5090006384993" filter="invert(93%) hue-rotate(180deg)">
  <!-- svg-source:excalidraw -->
  
  <defs>
    <style class="style-fonts">
      @font-face {
        font-family: "Virgil";
        src: url("https://excalidraw.com/Virgil.woff2");
      }
      @font-face {
        font-family: "Cascadia";
        src: url("https://excalidraw.com/Cascadia.woff2");
      }
      @font-face {
        font-family: "Assistant";
        src: url("https://excalidraw.com/Assistant-Regular.woff2");
      }
    </style>
    
  </defs>
  <rect x="0" y="0" width="3006.868524376203" height="665.5090006384993" fill="#f8f9fa"></rect><g stroke-linecap="round" transform="translate(10 99.55038159146818) rotate(0 128.1067958877947 122.50989703832795)"><path d="M32 0 C104.17 -1.7, 178.66 0.26, 224.21 0 M32 0 C93.79 -1.21, 155.71 -2.6, 224.21 0 M224.21 0 C243.58 1.03, 257.28 8.72, 256.21 32 M224.21 0 C245.12 0.4, 257.55 8.89, 256.21 32 M256.21 32 C256.51 77.56, 255.77 125.23, 256.21 213.02 M256.21 32 C257.6 75.58, 257.03 116.26, 256.21 213.02 M256.21 213.02 C255.27 235.26, 247.09 246.44, 224.21 245.02 M256.21 213.02 C256.98 235.65, 244.54 244.95, 224.21 245.02 M224.21 245.02 C149.44 243.55, 72.45 244.04, 32 245.02 M224.21 245.02 C157.62 244, 90.3 243.74, 32 245.02 M32 245.02 C11.72 244.54, 1.02 234.99, 0 213.02 M32 245.02 C12.46 246.83, -2.24 235.7, 0 213.02 M0 213.02 C0.28 174.12, -3.11 133.7, 0 32 M0 213.02 C-1.03 166.85, 0.4 120.24, 0 32 M0 32 C-0.86 10.17, 9.46 -0.01, 32 0 M0 32 C-0.44 9.31, 11.92 1.49, 32 0" stroke="#1e1e1e" stroke-width="2" fill="none"></path></g><g transform="translate(53.531435495852634 207.75709268115895) rotate(0 90 18.71877649940751)"><text x="0" y="26.236237141569575" font-family="Virgil, Segoe UI Emoji" font-size="29.950042399052023px" fill="#1e1e1e" text-anchor="start" style="white-space: pre;" direction="ltr" dominant-baseline="alphabetic">Title Screen</text></g><g stroke-linecap="round"><g transform="translate(276.1636341746414 236.5451867647526) rotate(0 159.82255603477307 -57.57141140932558)"><path d="M0.25 0.4 C53.26 -19.02, 265.75 -96.2, 318.88 -115.36 M-1.08 -0.43 C52.24 -19.17, 268.02 -94.57, 321.19 -113.94" stroke="#1e1e1e" stroke-width="2" fill="none"></path></g><g transform="translate(276.1636341746414 236.5451867647526) rotate(0 159.82255603477307 -57.57141140932558)"><path d="M301.92 -98.01 C309.5 -105.17, 315.53 -110.73, 321.19 -113.94 M301.92 -98.01 C307.7 -103.95, 314.89 -109.25, 321.19 -113.94" stroke="#1e1e1e" stroke-width="2" fill="none"></path></g><g transform="translate(276.1636341746414 236.5451867647526) rotate(0 159.82255603477307 -57.57141140932558)"><path d="M296.19 -114.12 C306.03 -115.38, 314.16 -115.04, 321.19 -113.94 M296.19 -114.12 C303.96 -114.45, 313.13 -114.2, 321.19 -113.94" stroke="#1e1e1e" stroke-width="2" fill="none"></path></g></g><mask></mask><g stroke-linecap="round"><g transform="translate(271.18861297511535 242.59940070996868) rotate(0 163.55382193441756 84.80620086578863)"><path d="M-0.47 1.01 C54.41 29.16, 273.77 141.19, 328.24 169.32 M1.49 0.49 C56.4 28.79, 273.33 142.25, 327.89 170.71" stroke="#1e1e1e" stroke-width="2" fill="none"></path></g><g transform="translate(271.18861297511535 242.59940070996868) rotate(0 163.55382193441756 84.80620086578863)"><path d="M303.1 167.41 C310.15 170.1, 313.34 167.66, 327.89 170.71 M303.1 167.41 C311.69 168.01, 318.67 169.43, 327.89 170.71" stroke="#1e1e1e" stroke-width="2" fill="none"></path></g><g transform="translate(271.18861297511535 242.59940070996868) rotate(0 163.55382193441756 84.80620086578863)"><path d="M311.02 152.25 C316.41 158.19, 317.88 159.02, 327.89 170.71 M311.02 152.25 C317.1 157.58, 321.57 163.79, 327.89 170.71" stroke="#1e1e1e" stroke-width="2" fill="none"></path></g></g><mask></mask><g stroke-linecap="round" transform="translate(599.5400121438316 10) rotate(0 202.73211388068495 72.75968504306786)"><path d="M32 0 C131.07 1.81, 230.82 1.95, 373.46 0 M32 0 C167.47 0.51, 302.42 1.29, 373.46 0 M373.46 0 C393.5 -1.31, 407.44 11.15, 405.46 32 M373.46 0 C393.61 -0.42, 405.48 11.38, 405.46 32 M405.46 32 C405.89 58.88, 406.65 84.93, 405.46 113.52 M405.46 32 C406.6 49.58, 404.96 66.3, 405.46 113.52 M405.46 113.52 C404.04 135.13, 392.98 144.03, 373.46 145.52 M405.46 113.52 C407.47 132.81, 394.56 145.95, 373.46 145.52 M373.46 145.52 C244.22 145.44, 114.07 145.92, 32 145.52 M373.46 145.52 C276.56 143.87, 180.45 144.23, 32 145.52 M32 145.52 C8.88 147.02, 1.82 133.06, 0 113.52 M32 145.52 C9.75 143.78, -1.22 134.79, 0 113.52 M0 113.52 C-2.29 81.7, -0.96 48.36, 0 32 M0 113.52 C-0.59 84.86, -0.47 55.99, 0 32 M0 32 C-0.41 9.7, 11.91 1.06, 32 0 M0 32 C-1.55 10.83, 11.09 -1.57, 32 0" stroke="#1e1e1e" stroke-width="2" fill="none"></path></g><g transform="translate(656.136704271587 32.75968504306786) rotate(0 146.1354217529297 50)"><text x="146.1354217529297" y="17.52" font-family="Virgil, Segoe UI Emoji" font-size="20px" fill="#1e1e1e" text-anchor="middle" style="white-space: pre;" direction="ltr" dominant-baseline="alphabetic">Level Select Screen</text><text x="146.1354217529297" y="42.519999999999996" font-family="Virgil, Segoe UI Emoji" font-size="20px" fill="#1e1e1e" text-anchor="middle" style="white-space: pre;" direction="ltr" dominant-baseline="alphabetic">- list of all levels </text><text x="146.1354217529297" y="67.52" font-family="Virgil, Segoe UI Emoji" font-size="20px" fill="#1e1e1e" text-anchor="middle" style="white-space: pre;" direction="ltr" dominant-baseline="alphabetic">- button for all levels</text><text x="146.1354217529297" y="92.52" font-family="Virgil, Segoe UI Emoji" font-size="20px" fill="#1e1e1e" text-anchor="middle" style="white-space: pre;" direction="ltr" dominant-baseline="alphabetic">- back to title screen button</text></g><g stroke-linecap="round" transform="translate(604.5649909443057 344.620133269072) rotate(0 183.45390673252177 72.75968504306785)"><path d="M32 0 C109.28 1.59, 183.57 3.14, 334.91 0 M32 0 C147.39 -1.6, 263.06 -0.48, 334.91 0 M334.91 0 C356.67 -0.19, 366.05 9.07, 366.91 32 M334.91 0 C354.97 -1.1, 365.2 12, 366.91 32 M366.91 32 C365.44 48.73, 366.64 65.97, 366.91 113.52 M366.91 32 C366.36 57.74, 367.55 83.48, 366.91 113.52 M366.91 113.52 C366.78 135.44, 355.59 143.96, 334.91 145.52 M366.91 113.52 C365.12 137.09, 358.02 145.11, 334.91 145.52 M334.91 145.52 C246.51 145.05, 155.44 145.83, 32 145.52 M334.91 145.52 C251.79 146.3, 168.83 146.37, 32 145.52 M32 145.52 C11.67 144.11, 0.2 133.24, 0 113.52 M32 145.52 C10.99 145.87, 1.23 132.7, 0 113.52 M0 113.52 C-0.81 92.05, 0.95 72.74, 0 32 M0 113.52 C0.69 83.87, 0.27 52.92, 0 32 M0 32 C1.72 10.53, 10.99 0.75, 32 0 M0 32 C0.44 8.91, 9.58 0.19, 32 0" stroke="#1e1e1e" stroke-width="2" fill="none"></path></g><g transform="translate(628.5501476768275 367.3798183121399) rotate(0 159.46875 50)"><text x="159.46875" y="17.52" font-family="Virgil, Segoe UI Emoji" font-size="20px" fill="#1e1e1e" text-anchor="middle" style="white-space: pre;" direction="ltr" dominant-baseline="alphabetic">Help Screen</text><text x="159.46875" y="42.519999999999996" font-family="Virgil, Segoe UI Emoji" font-size="20px" fill="#1e1e1e" text-anchor="middle" style="white-space: pre;" direction="ltr" dominant-baseline="alphabetic">- back to title screen button</text><text x="159.46875" y="67.52" font-family="Virgil, Segoe UI Emoji" font-size="20px" fill="#1e1e1e" text-anchor="middle" style="white-space: pre;" direction="ltr" dominant-baseline="alphabetic">- controls, mechanics, how to win</text><text x="159.46875" y="92.52" font-family="Virgil, Segoe UI Emoji" font-size="20px" fill="#1e1e1e" text-anchor="middle" style="white-space: pre;" direction="ltr" dominant-baseline="alphabetic"></text></g><g transform="translate(350.7598220781423 118.72105389715938) rotate(0.44465302474453705 76.5625 9.003883960159612)"><text x="0" y="12.619843758559721" font-family="Virgil, Segoe UI Emoji" font-size="14.406214336255392px" fill="#1e1e1e" text-anchor="start" style="white-space: pre;" direction="ltr" dominant-baseline="alphabetic">Play Button Selected</text></g><g transform="translate(313.1021922475853 381.1710068888052) rotate(0.9505634450798546 90.6875 10.816579220678108)"><text x="0" y="15.16051743570243" font-family="Virgil, Segoe UI Emoji" font-size="17.306526753084963px" fill="#1e1e1e" text-anchor="start" style="white-space: pre;" direction="ltr" dominant-baseline="alphabetic">Help Button Selected</text></g><g stroke-linecap="round" transform="translate(1154.722620193701 186.613252583173) rotate(0 274.24804362387124 141.78810418649124)"><path d="M32 0 C183.47 -1.26, 334 -1.75, 516.5 0 M32 0 C193.37 -0.7, 354.52 -0.77, 516.5 0 M516.5 0 C537.83 1.36, 547.4 8.93, 548.5 32 M516.5 0 C537.12 -0.52, 547.85 8.53, 548.5 32 M548.5 32 C546.89 98.1, 548.47 163.69, 548.5 251.58 M548.5 32 C548.95 99.87, 548.48 168.49, 548.5 251.58 M548.5 251.58 C546.7 274.27, 537.48 282.53, 516.5 283.58 M548.5 251.58 C550.56 274.67, 535.65 282.7, 516.5 283.58 M516.5 283.58 C406.99 281.39, 298.25 282.31, 32 283.58 M516.5 283.58 C323.36 284.13, 129.63 284.02, 32 283.58 M32 283.58 C8.77 285.3, -1.6 273.43, 0 251.58 M32 283.58 C12.79 282.59, -0.89 274.18, 0 251.58 M0 251.58 C-3.45 191.52, -1.36 131.89, 0 32 M0 251.58 C-1.06 194.4, -1.32 135.95, 0 32 M0 32 C-1.12 10.93, 12.61 0.37, 32 0 M0 32 C-1.67 9.24, 9.15 0.51, 32 0" stroke="#1e1e1e" stroke-width="2" fill="none"></path></g><g transform="translate(1177.1164920646427 278.40135676966423) rotate(0 251.8541717529297 50)"><text x="251.8541717529297" y="17.52" font-family="Virgil, Segoe UI Emoji" font-size="20px" fill="#1e1e1e" text-anchor="middle" style="white-space: pre;" direction="ltr" dominant-baseline="alphabetic">ALL LEVELS</text><text x="251.8541717529297" y="42.519999999999996" font-family="Virgil, Segoe UI Emoji" font-size="20px" fill="#1e1e1e" text-anchor="middle" style="white-space: pre;" direction="ltr" dominant-baseline="alphabetic">- obstacles, platforms, walls</text><text x="251.8541717529297" y="67.52" font-family="Virgil, Segoe UI Emoji" font-size="20px" fill="#1e1e1e" text-anchor="middle" style="white-space: pre;" direction="ltr" dominant-baseline="alphabetic">- bar at bottom to display how much phase is left</text><text x="251.8541717529297" y="92.52" font-family="Virgil, Segoe UI Emoji" font-size="20px" fill="#1e1e1e" text-anchor="middle" style="white-space: pre;" direction="ltr" dominant-baseline="alphabetic">- continuously scrolling background</text></g><g stroke-linecap="round"><g transform="translate(1009.2032501075653 90.8440944922973) rotate(0 71.51592974318635 124.37552998815019)"><path d="M0.29 0.88 C24.06 41.97, 118.15 206.21, 142.09 247.6 M-1.02 0.29 C23.17 42, 120.2 207.4, 144.31 248.53" stroke="#1e1e1e" stroke-width="2" fill="none"></path></g><g transform="translate(1009.2032501075653 90.8440944922973) rotate(0 71.51592974318635 124.37552998815019)"><path d="M125.06 232.59 C131.57 235.05, 133.1 242.22, 144.31 248.53 M125.06 232.59 C132.02 238.71, 138.37 244.23, 144.31 248.53" stroke="#1e1e1e" stroke-width="2" fill="none"></path></g><g transform="translate(1009.2032501075653 90.8440944922973) rotate(0 71.51592974318635 124.37552998815019)"><path d="M139.81 223.94 C142.63 228.64, 140.4 238.02, 144.31 248.53 M139.81 223.94 C141.79 232.92, 143.17 241.36, 144.31 248.53" stroke="#1e1e1e" stroke-width="2" fill="none"></path></g></g><mask></mask><g stroke-linecap="round" transform="translate(2022.696446971611 38.606371897274244) rotate(0 194.02582678151452 116.29112053892044)"><path d="M32 0 C125.25 -0.34, 221.22 -1.67, 356.05 0 M32 0 C142.16 2.47, 253.77 1.72, 356.05 0 M356.05 0 C377.28 -0.55, 387.18 12.59, 388.05 32 M356.05 0 C375.72 -0.65, 389.91 9.54, 388.05 32 M388.05 32 C385.66 86.05, 388.75 140.56, 388.05 200.58 M388.05 32 C387.64 78.74, 387.74 123.75, 388.05 200.58 M388.05 200.58 C386.42 223.41, 378.99 231.63, 356.05 232.58 M388.05 200.58 C387.07 220.11, 375.67 234.07, 356.05 232.58 M356.05 232.58 C233.04 233.76, 111.58 235.18, 32 232.58 M356.05 232.58 C284.59 233.12, 212.32 234.33, 32 232.58 M32 232.58 C12.32 230.89, 0.37 221.26, 0 200.58 M32 232.58 C12.6 230.72, -1.05 221.71, 0 200.58 M0 200.58 C0.93 166.1, -1.55 133.29, 0 32 M0 200.58 C0.96 147.12, 0.62 95.95, 0 32 M0 32 C1.85 9.18, 9.4 1.41, 32 0 M0 32 C1.54 12.08, 9.5 1.41, 32 0" stroke="#1e1e1e" stroke-width="2" fill="none"></path></g><g transform="translate(2046.8368520001961 117.39749243619468) rotate(0 169.8854217529297 37.5)"><text x="169.8854217529297" y="17.52" font-family="Virgil, Segoe UI Emoji" font-size="20px" fill="#1e1e1e" text-anchor="middle" style="white-space: pre;" direction="ltr" dominant-baseline="alphabetic">GAME WIN</text><text x="169.8854217529297" y="42.519999999999996" font-family="Virgil, Segoe UI Emoji" font-size="20px" fill="#1e1e1e" text-anchor="middle" style="white-space: pre;" direction="ltr" dominant-baseline="alphabetic">- win screen</text><text x="169.8854217529297" y="67.52" font-family="Virgil, Segoe UI Emoji" font-size="20px" fill="#1e1e1e" text-anchor="middle" style="white-space: pre;" direction="ltr" dominant-baseline="alphabetic">- button to return to level select</text></g><g stroke-linecap="round" transform="translate(2027.6714681711371 412.97671716160653) rotate(0 195.26958208139604 121.26614173844638)"><path d="M32 0 C104.8 -2.24, 175.98 0.16, 358.54 0 M32 0 C156.79 0.17, 281.47 -0.73, 358.54 0 M358.54 0 C379.69 -1.98, 390.68 11.46, 390.54 32 M358.54 0 C381.07 -0.68, 388.89 11.24, 390.54 32 M390.54 32 C387.69 85.59, 387.01 143.76, 390.54 210.53 M390.54 32 C389.92 102.73, 389.82 171.62, 390.54 210.53 M390.54 210.53 C391.76 230.43, 381 243.97, 358.54 242.53 M390.54 210.53 C388.52 232.25, 380.57 242.76, 358.54 242.53 M358.54 242.53 C259.85 244.09, 160.35 244.99, 32 242.53 M358.54 242.53 C245.46 243.75, 132.41 243.56, 32 242.53 M32 242.53 C9.33 243.89, -1.65 230.03, 0 210.53 M32 242.53 C11.09 240.35, 1.02 229.93, 0 210.53 M0 210.53 C-0.19 155.57, -0.7 100.92, 0 32 M0 210.53 C0.69 170.38, -0.46 131.46, 0 32 M0 32 C-1.79 12.29, 8.86 1.66, 32 0 M0 32 C-0.55 10.1, 9.03 -1.86, 32 0" stroke="#1e1e1e" stroke-width="2" fill="none"></path></g><g transform="translate(2053.0556284996037 484.2428589000529) rotate(0 169.8854217529297 50)"><text x="169.8854217529297" y="17.52" font-family="Virgil, Segoe UI Emoji" font-size="20px" fill="#1e1e1e" text-anchor="middle" style="white-space: pre;" direction="ltr" dominant-baseline="alphabetic">GAME LOSE</text><text x="169.8854217529297" y="42.519999999999996" font-family="Virgil, Segoe UI Emoji" font-size="20px" fill="#1e1e1e" text-anchor="middle" style="white-space: pre;" direction="ltr" dominant-baseline="alphabetic">- lose screen</text><text x="169.8854217529297" y="67.52" font-family="Virgil, Segoe UI Emoji" font-size="20px" fill="#1e1e1e" text-anchor="middle" style="white-space: pre;" direction="ltr" dominant-baseline="alphabetic">- button to return to level select</text><text x="169.8854217529297" y="92.52" font-family="Virgil, Segoe UI Emoji" font-size="20px" fill="#1e1e1e" text-anchor="middle" style="white-space: pre;" direction="ltr" dominant-baseline="alphabetic">- button to restart level</text></g><g stroke-linecap="round"><g transform="translate(1703.2473721143713 354.52021806717573) rotate(0 159.20067838483237 -100.74417929040166)"><path d="M0.87 0.17 C53.91 -33.52, 264.78 -168.62, 317.52 -202.22 M-0.14 -0.78 C53.35 -34.33, 266.48 -167.85, 319.77 -201.07" stroke="#1e1e1e" stroke-width="2" fill="none"></path></g><g transform="translate(1703.2473721143713 354.52021806717573) rotate(0 159.20067838483237 -100.74417929040166)"><path d="M304.38 -181.37 C308.34 -187.63, 310.49 -192.67, 319.77 -201.07 M304.38 -181.37 C309.5 -186.49, 314.4 -194.21, 319.77 -201.07" stroke="#1e1e1e" stroke-width="2" fill="none"></path></g><g transform="translate(1703.2473721143713 354.52021806717573) rotate(0 159.20067838483237 -100.74417929040166)"><path d="M295.32 -195.87 C301.42 -198.75, 305.73 -200.33, 319.77 -201.07 M295.32 -195.87 C303.09 -196.53, 310.75 -199.83, 319.77 -201.07" stroke="#1e1e1e" stroke-width="2" fill="none"></path></g></g><mask></mask><g stroke-linecap="round"><g transform="translate(1703.2473721143713 359.4952392667018) rotate(0 157.33504543501 95.14728044093488)"><path d="M-0.86 1.13 C51.64 33.02, 262.68 158.67, 315.4 190.35 M0.89 0.67 C53.26 32.87, 262.47 160.48, 314.83 191.92" stroke="#1e1e1e" stroke-width="2" fill="none"></path></g><g transform="translate(1703.2473721143713 359.4952392667018) rotate(0 157.33504543501 95.14728044093488)"><path d="M290.31 187.05 C300.3 190.06, 306.66 191.72, 314.83 191.92 M290.31 187.05 C298.48 189.29, 309.3 190.41, 314.83 191.92" stroke="#1e1e1e" stroke-width="2" fill="none"></path></g><g transform="translate(1703.2473721143713 359.4952392667018) rotate(0 157.33504543501 95.14728044093488)"><path d="M299.17 172.43 C306.09 180.23, 309.51 186.76, 314.83 191.92 M299.17 172.43 C303.93 180.16, 311.43 186.75, 314.83 191.92" stroke="#1e1e1e" stroke-width="2" fill="none"></path></g></g><mask></mask><g stroke-linecap="round" transform="translate(2526.6734424717843 281.9761501362522) rotate(0 235.09754095220933 112.36279530804123)"><path d="M32 0 C175.37 -2.27, 317.75 -2.48, 438.2 0 M32 0 C194.91 -0.52, 356.92 -0.15, 438.2 0 M438.2 0 C461.36 0.3, 471.18 11.26, 470.2 32 M438.2 0 C458.13 0.22, 471.73 9.48, 470.2 32 M470.2 32 C472.1 85.34, 471.07 138.1, 470.2 192.73 M470.2 32 C468.18 67.09, 469.48 102.07, 470.2 192.73 M470.2 192.73 C468.47 214.01, 459.96 226.57, 438.2 224.73 M470.2 192.73 C469.11 214.61, 457.63 226.93, 438.2 224.73 M438.2 224.73 C300.13 223.77, 164.25 224.44, 32 224.73 M438.2 224.73 C296.37 224.02, 153.71 224.65, 32 224.73 M32 224.73 C10.81 223.42, -0.61 213.01, 0 192.73 M32 224.73 C11.59 223.48, -1.37 214.93, 0 192.73 M0 192.73 C-1.5 155.45, -1.28 121.23, 0 32 M0 192.73 C0.46 157.92, -0.6 121.59, 0 32 M0 32 C-0.04 10.88, 10.51 -0.09, 32 0 M0 32 C0.96 11.25, 10.34 -2.19, 32 0" stroke="#1e1e1e" stroke-width="2" fill="none"></path></g><g transform="translate(2591.8855616710644 344.3389454442935) rotate(0 169.8854217529297 50)"><text x="169.8854217529297" y="17.52" font-family="Virgil, Segoe UI Emoji" font-size="20px" fill="#1e1e1e" text-anchor="middle" style="white-space: pre;" direction="ltr" dominant-baseline="alphabetic">(if all levels are completed) </text><text x="169.8854217529297" y="42.519999999999996" font-family="Virgil, Segoe UI Emoji" font-size="20px" fill="#1e1e1e" text-anchor="middle" style="white-space: pre;" direction="ltr" dominant-baseline="alphabetic">FINAL WIN SCREEN</text><text x="169.8854217529297" y="67.52" font-family="Virgil, Segoe UI Emoji" font-size="20px" fill="#1e1e1e" text-anchor="middle" style="white-space: pre;" direction="ltr" dominant-baseline="alphabetic">- button to return to level select</text><text x="169.8854217529297" y="92.52" font-family="Virgil, Segoe UI Emoji" font-size="20px" fill="#1e1e1e" text-anchor="middle" style="white-space: pre;" direction="ltr" dominant-baseline="alphabetic">- button to quit</text></g><g stroke-linecap="round"><g transform="translate(1704.9844880652884 355.7322414153767) rotate(0 408.53959935077546 3.457316778708986)"><path d="M0.29 0.19 C136.24 1.53, 679.85 6.09, 816.16 7.33 M-1.01 -0.75 C135.27 0.27, 681.89 4.35, 818.39 5.43" stroke="#1e1e1e" stroke-width="2" fill="none"></path></g><g transform="translate(1704.9844880652884 355.7322414153767) rotate(0 408.53959935077546 3.457316778708986)"><path d="M794.83 13.8 C803.15 9.38, 811.48 9.91, 818.39 5.43 M794.83 13.8 C803.78 9.88, 812.47 7.33, 818.39 5.43" stroke="#1e1e1e" stroke-width="2" fill="none"></path></g><g transform="translate(1704.9844880652884 355.7322414153767) rotate(0 408.53959935077546 3.457316778708986)"><path d="M794.96 -3.3 C803.14 -1.95, 811.43 4.36, 818.39 5.43 M794.96 -3.3 C803.91 -1.04, 812.57 2.58, 818.39 5.43" stroke="#1e1e1e" stroke-width="2" fill="none"></path></g></g><mask></mask></svg>